<?xml version="1.0" encoding="utf-8" standalone="no"?>
<!DOCTYPE svg PUBLIC "-//W3C//DTD SVG 1.1//EN"
  "http://www.w3.org/Graphics/SVG/1.1/DTD/svg11.dtd">
<svg xmlns:xlink="http://www.w3.org/1999/xlink" width="527.4675pt" height="333.64pt" viewBox="0 0 527.4675 333.64" xmlns="http://www.w3.org/2000/svg" version="1.1">
 <metadata>
  <rdf:RDF xmlns:dc="http://purl.org/dc/elements/1.1/" xmlns:cc="http://creativecommons.org/ns#" xmlns:rdf="http://www.w3.org/1999/02/22-rdf-syntax-ns#">
   <cc:Work>
    <dc:type rdf:resource="http://purl.org/dc/dcmitype/StillImage"/>
    <dc:date>2026-09-10T14:13:07.607956</dc:date>
    <dc:format>image/svg+xml</dc:format>
    <dc:creator>
     <cc:Agent>
      <dc:title>Matplotlib v3.11.1, https://matplotlib.org/</dc:title>
     </cc:Agent>
    </dc:creator>
   </cc:Work>
  </rdf:RDF>
 </metadata>
 <defs>
  <style type="text/css">*{stroke-linejoin: round; stroke-linecap: butt}</style>
 </defs>
 <g id="figure_1">
  <g id="patch_1">
   <path d="M 0 333.64 
L 527.4675 333.64 
L 527.4675 0 
L 0 0 
z
" style="fill: #fcfcfb"/>
  </g>
  <g id="axes_1">
   <g id="patch_2">
    <path d="M 40.3875 245.96 
L 520.2675 245.96 
L 520.2675 24.2 
L 40.3875 24.2 
z
" style="fill: #fcfcfb"/>
   </g>
   <g id="matplotlib.axis_1">
    <g id="xtick_1">
     <g id="line2d_1">
      <defs>
       <path id="m322e1a9272" d="M 0 0 
L 0 3 
" style="stroke: #52514e; stroke-width: 0.8"/>
      </defs>
      <g>
       <use xlink:href="#m322e1a9272" x="123.44655" y="245.96" style="fill: #52514e; stroke: #52514e; stroke-width: 0.8"/>
      </g>
     </g>
     <g id="text_1">
      <!-- v2 -->
      <g style="fill: #52514e" transform="translate(119.34655 259.66) scale(0.08 -0.08)">
       <defs>
        <path id="AppleSDGothicNeo-Regular-57" d="M 1331 269 
L 1818 269 
L 2995 3443 
L 2515 3443 
L 1600 890 
L 1574 890 
L 685 3443 
L 154 3443 
L 1331 269 
z
" transform="scale(0.015625)"/>
        <path id="AppleSDGothicNeo-Regular-13" d="M 397 269 
L 3066 269 
L 3066 704 
L 1107 704 
L 1779 1382 
C 2522 2138 2970 2650 2970 3392 
C 2970 4160 2502 4640 1638 4640 
C 1152 4640 717 4422 448 4250 
L 595 3846 
C 845 4019 1190 4198 1555 4198 
C 2163 4198 2438 3917 2438 3347 
C 2438 2733 2029 2266 1421 1632 
L 397 570 
L 397 269 
z
" transform="scale(0.015625)"/>
       </defs>
       <use xlink:href="#AppleSDGothicNeo-Regular-57"/>
       <use xlink:href="#AppleSDGothicNeo-Regular-13" transform="translate(49.203125 0)"/>
      </g>
     </g>
    </g>
    <g id="xtick_2">
     <g id="line2d_2">
      <g>
       <use xlink:href="#m322e1a9272" x="280.3275" y="245.96" style="fill: #52514e; stroke: #52514e; stroke-width: 0.8"/>
      </g>
     </g>
     <g id="text_2">
      <!-- v3 -->
      <g style="fill: #52514e" transform="translate(276.215625 259.66) scale(0.08 -0.08)">
       <defs>
        <path id="AppleSDGothicNeo-Regular-14" d="M 1491 205 
C 2445 205 3053 730 3053 1478 
C 3053 2144 2630 2458 2074 2566 
C 2560 2726 2893 3040 2893 3571 
C 2893 4243 2368 4634 1600 4634 
C 1229 4634 723 4474 467 4301 
L 544 3891 
C 813 4045 1146 4198 1498 4198 
C 2022 4198 2362 4013 2362 3488 
C 2362 3008 1984 2726 1427 2726 
L 1043 2726 
L 1043 2291 
L 1459 2291 
C 2112 2291 2534 2029 2534 1478 
C 2534 947 2138 634 1427 634 
C 1107 634 678 755 435 915 
L 326 512 
C 563 346 992 205 1491 205 
z
" transform="scale(0.015625)"/>
       </defs>
       <use xlink:href="#AppleSDGothicNeo-Regular-57"/>
       <use xlink:href="#AppleSDGothicNeo-Regular-14" transform="translate(49.203125 0)"/>
      </g>
     </g>
    </g>
    <g id="xtick_3">
     <g id="line2d_3">
      <g>
       <use xlink:href="#m322e1a9272" x="437.20845" y="245.96" style="fill: #52514e; stroke: #52514e; stroke-width: 0.8"/>
      </g>
     </g>
     <g id="text_3">
      <!-- v4 -->
      <g style="fill: #52514e" transform="translate(433.020325 259.66) scale(0.08 -0.08)">
       <defs>
        <path id="AppleSDGothicNeo-Regular-15" d="M 2214 166 
L 2682 166 
L 2682 1171 
L 3398 1171 
L 3398 1587 
L 2682 1587 
L 2682 4621 
L 2285 4621 
L 186 1555 
L 186 1171 
L 2214 1171 
L 2214 166 
z
M 730 1587 
L 2214 3814 
L 2214 1587 
L 730 1587 
z
" transform="scale(0.015625)"/>
       </defs>
       <use xlink:href="#AppleSDGothicNeo-Regular-57"/>
       <use xlink:href="#AppleSDGothicNeo-Regular-15" transform="translate(49.203125 0)"/>
      </g>
     </g>
    </g>
    <g id="text_4">
     <!-- QR 버전 층 -->
     <g style="fill: #52514e" transform="translate(260.599922 274.16) scale(0.09 -0.09)">
      <defs>
       <path id="AppleSDGothicNeo-Regular-32" d="M 4077 2362 
L 4077 2470 
C 4077 3872 3360 4634 2208 4634 
C 1024 4634 314 3821 314 2477 
L 314 2368 
C 314 1165 806 493 1683 237 
L 4109 -461 
L 4230 -13 
L 2739 346 
C 3597 557 4077 1242 4077 2362 
z
M 2208 608 
C 1242 608 851 1331 851 2368 
L 851 2566 
C 851 3533 1293 4218 2182 4218 
C 3149 4211 3533 3514 3533 2470 
L 3533 2272 
C 3533 1312 3091 608 2208 608 
z
" transform="scale(0.015625)"/>
       <path id="AppleSDGothicNeo-Regular-33" d="M 550 269 
L 1056 269 
L 1056 2112 
L 1875 2112 
L 2944 269 
L 3520 269 
L 2381 2202 
L 2381 2234 
C 2912 2400 3219 2746 3219 3360 
C 3219 4134 2746 4563 1798 4563 
L 550 4563 
L 550 269 
z
M 1056 2509 
L 1056 4134 
L 1760 4134 
C 2419 4134 2682 3885 2682 3354 
C 2682 2797 2438 2509 1766 2509 
L 1056 2509 
z
" transform="scale(0.015625)"/>
       <path id="AppleSDGothicNeo-Regular-1" transform="scale(0.015625)"/>
       <path id="AppleSDGothicNeo-Regular-7e1" d="M 4358 2669 
L 4358 -448 
L 4845 -448 
L 4845 5146 
L 4358 5146 
L 4358 3085 
L 3270 3085 
L 3270 2669 
L 4358 2669 
z
M 3040 979 
L 3040 4678 
L 2554 4678 
L 2554 3251 
L 896 3251 
L 896 4678 
L 410 4678 
L 410 979 
L 3040 979 
z
M 2554 1389 
L 896 1389 
L 896 2848 
L 2554 2848 
L 2554 1389 
z
" transform="scale(0.015625)"/>
       <path id="AppleSDGothicNeo-Regular-a79" d="M 403 4243 
L 1664 4243 
C 1664 3994 1664 3872 1658 3795 
C 1632 3059 928 2349 224 2074 
L 506 1696 
C 1107 1958 1754 2566 1907 3085 
C 2138 2579 2733 2048 3264 1830 
L 3539 2221 
C 2899 2432 2208 3072 2163 3789 
C 2157 3872 2157 3987 2157 4243 
L 3411 4243 
L 3411 4653 
L 403 4653 
L 403 4243 
z
M 4813 1050 
L 4813 5146 
L 4326 5146 
L 4326 3590 
L 3213 3590 
L 3213 3181 
L 4326 3181 
L 4326 1050 
L 4813 1050 
z
M 4934 -262 
L 4934 147 
L 1651 147 
L 1651 1459 
L 1165 1459 
L 1165 -262 
L 4934 -262 
z
" transform="scale(0.015625)"/>
       <path id="AppleSDGothicNeo-Regular-b95" d="M 4730 518 
C 4730 1139 4045 1485 2765 1485 
C 1491 1485 813 1114 813 518 
C 813 -90 1491 -448 2765 -448 
C 4045 -448 4730 -96 4730 518 
z
M 5024 2989 
C 4243 3046 3219 3315 3040 3878 
L 4787 3878 
L 4787 4275 
L 755 4275 
L 755 3878 
L 2496 3878 
C 2330 3309 1344 3014 525 2970 
L 704 2579 
C 1568 2682 2483 2963 2765 3526 
C 3078 2970 3994 2688 4806 2579 
L 5024 2989 
z
M 2765 1069 
C 3674 1069 4237 864 4237 518 
C 4237 160 3674 -38 2765 -38 
C 1862 -38 1306 160 1306 518 
C 1306 864 1862 1069 2765 1069 
z
M 5293 1869 
L 5293 2278 
L 243 2278 
L 243 1869 
L 5293 1869 
z
M 3661 4710 
L 3661 5133 
L 1869 5133 
L 1869 4710 
L 3661 4710 
z
" transform="scale(0.015625)"/>
      </defs>
      <use xlink:href="#AppleSDGothicNeo-Regular-32"/>
      <use xlink:href="#AppleSDGothicNeo-Regular-33" transform="translate(68.5 0)"/>
      <use xlink:href="#AppleSDGothicNeo-Regular-1" transform="translate(126.296875 0)"/>
      <use xlink:href="#AppleSDGothicNeo-Regular-7e1" transform="translate(152.59375 0)"/>
      <use xlink:href="#AppleSDGothicNeo-Regular-a79" transform="translate(239.09375 0)"/>
      <use xlink:href="#AppleSDGothicNeo-Regular-1" transform="translate(325.59375 0)"/>
      <use xlink:href="#AppleSDGothicNeo-Regular-b95" transform="translate(351.890625 0)"/>
     </g>
    </g>
   </g>
   <g id="matplotlib.axis_2">
    <g id="ytick_1">
     <g id="line2d_4">
      <path d="M 40.3875 245.96 
L 520.2675 245.96 
" clip-path="url(#pe5925e1817)" style="fill: none; stroke: #e5e4df; stroke-width: 0.8; stroke-linecap: square"/>
     </g>
     <g id="line2d_5">
      <defs>
       <path id="m4901c569d8" d="M 0 0 
L -3 0 
" style="stroke: #52514e; stroke-width: 0.8"/>
      </defs>
      <g>
       <use xlink:href="#m4901c569d8" x="40.3875" y="245.96" style="fill: #52514e; stroke: #52514e; stroke-width: 0.8"/>
      </g>
     </g>
     <g id="text_5">
      <!-- 0.0 -->
      <g style="fill: #52514e" transform="translate(22 249.56) scale(0.08 -0.08)">
       <defs>
        <path id="AppleSDGothicNeo-Regular-11" d="M 2022 192 
C 2893 192 3558 787 3558 2240 
L 3558 2630 
C 3558 4122 2867 4634 2029 4634 
C 1184 4634 448 4122 448 2605 
L 448 2246 
C 448 794 1139 192 2022 192 
z
M 2022 614 
C 1350 614 992 1126 992 2195 
L 992 2669 
C 992 3744 1357 4211 2029 4211 
C 2688 4211 3040 3718 3040 2637 
L 3040 2163 
C 3040 1062 2682 614 2022 614 
z
" transform="scale(0.015625)"/>
        <path id="AppleSDGothicNeo-Regular-f" d="M 269 109 
L 826 109 
L 826 678 
L 269 678 
L 269 109 
z
" transform="scale(0.015625)"/>
       </defs>
       <use xlink:href="#AppleSDGothicNeo-Regular-11"/>
       <use xlink:href="#AppleSDGothicNeo-Regular-f" transform="translate(63 0)"/>
       <use xlink:href="#AppleSDGothicNeo-Regular-11" transform="translate(85.59375 0)"/>
      </g>
     </g>
    </g>
    <g id="ytick_2">
     <g id="line2d_6">
      <path d="M 40.3875 207.725517 
L 520.2675 207.725517 
" clip-path="url(#pe5925e1817)" style="fill: none; stroke: #e5e4df; stroke-width: 0.8; stroke-linecap: square"/>
     </g>
     <g id="line2d_7">
      <g>
       <use xlink:href="#m4901c569d8" x="40.3875" y="207.725517" style="fill: #52514e; stroke: #52514e; stroke-width: 0.8"/>
      </g>
     </g>
     <g id="text_6">
      <!-- 0.2 -->
      <g style="fill: #52514e" transform="translate(22.77625 211.325517) scale(0.08 -0.08)">
       <use xlink:href="#AppleSDGothicNeo-Regular-11"/>
       <use xlink:href="#AppleSDGothicNeo-Regular-f" transform="translate(63 0)"/>
       <use xlink:href="#AppleSDGothicNeo-Regular-13" transform="translate(85.59375 0)"/>
      </g>
     </g>
    </g>
    <g id="ytick_3">
     <g id="line2d_8">
      <path d="M 40.3875 169.491034 
L 520.2675 169.491034 
" clip-path="url(#pe5925e1817)" style="fill: none; stroke: #e5e4df; stroke-width: 0.8; stroke-linecap: square"/>
     </g>
     <g id="line2d_9">
      <g>
       <use xlink:href="#m4901c569d8" x="40.3875" y="169.491034" style="fill: #52514e; stroke: #52514e; stroke-width: 0.8"/>
      </g>
     </g>
     <g id="text_7">
      <!-- 0.4 -->
      <g style="fill: #52514e" transform="translate(22.6 173.091034) scale(0.08 -0.08)">
       <use xlink:href="#AppleSDGothicNeo-Regular-11"/>
       <use xlink:href="#AppleSDGothicNeo-Regular-f" transform="translate(63 0)"/>
       <use xlink:href="#AppleSDGothicNeo-Regular-15" transform="translate(85.59375 0)"/>
      </g>
     </g>
    </g>
    <g id="ytick_4">
     <g id="line2d_10">
      <path d="M 40.3875 131.256552 
L 520.2675 131.256552 
" clip-path="url(#pe5925e1817)" style="fill: none; stroke: #e5e4df; stroke-width: 0.8; stroke-linecap: square"/>
     </g>
     <g id="line2d_11">
      <g>
       <use xlink:href="#m4901c569d8" x="40.3875" y="131.256552" style="fill: #52514e; stroke: #52514e; stroke-width: 0.8"/>
      </g>
     </g>
     <g id="text_8">
      <!-- 0.6 -->
      <g style="fill: #52514e" transform="translate(22.6075 134.856552) scale(0.08 -0.08)">
       <defs>
        <path id="AppleSDGothicNeo-Regular-17" d="M 1837 192 
C 2707 192 3232 826 3232 1645 
C 3232 2464 2656 2957 1939 2957 
C 1459 2957 1107 2733 877 2496 
C 941 3834 1350 4205 2080 4205 
C 2355 4205 2733 4096 2886 4006 
L 3034 4378 
C 2854 4486 2458 4634 2029 4634 
C 1037 4634 365 3968 365 2451 
L 365 2118 
C 365 896 877 192 1837 192 
z
M 1830 614 
C 1146 614 877 1139 877 1939 
L 877 1984 
C 1056 2240 1427 2528 1837 2528 
C 2355 2528 2720 2266 2720 1594 
C 2720 979 2387 614 1830 614 
z
" transform="scale(0.015625)"/>
       </defs>
       <use xlink:href="#AppleSDGothicNeo-Regular-11"/>
       <use xlink:href="#AppleSDGothicNeo-Regular-f" transform="translate(63 0)"/>
       <use xlink:href="#AppleSDGothicNeo-Regular-17" transform="translate(85.59375 0)"/>
      </g>
     </g>
    </g>
    <g id="ytick_5">
     <g id="line2d_12">
      <path d="M 40.3875 93.022069 
L 520.2675 93.022069 
" clip-path="url(#pe5925e1817)" style="fill: none; stroke: #e5e4df; stroke-width: 0.8; stroke-linecap: square"/>
     </g>
     <g id="line2d_13">
      <g>
       <use xlink:href="#m4901c569d8" x="40.3875" y="93.022069" style="fill: #52514e; stroke: #52514e; stroke-width: 0.8"/>
      </g>
     </g>
     <g id="text_9">
      <!-- 0.8 -->
      <g style="fill: #52514e" transform="translate(22.44 96.622069) scale(0.08 -0.08)">
       <defs>
        <path id="AppleSDGothicNeo-Regular-19" d="M 1837 186 
C 2765 186 3341 723 3341 1408 
C 3341 2054 2829 2362 2298 2534 
C 2739 2765 3168 3066 3168 3584 
C 3168 4250 2624 4640 1818 4640 
C 992 4640 461 4179 461 3558 
C 461 3008 838 2682 1299 2502 
C 826 2317 339 1926 339 1363 
C 339 659 922 186 1837 186 
z
M 1830 608 
C 1261 608 851 909 851 1382 
C 851 1856 1280 2163 1702 2310 
C 2445 2074 2797 1882 2797 1357 
C 2797 915 2381 608 1830 608 
z
M 1920 2720 
C 1350 2867 1005 3130 1005 3571 
C 1005 3981 1331 4218 1824 4218 
C 2355 4218 2637 3942 2637 3565 
C 2637 3155 2323 2899 1920 2720 
z
" transform="scale(0.015625)"/>
       </defs>
       <use xlink:href="#AppleSDGothicNeo-Regular-11"/>
       <use xlink:href="#AppleSDGothicNeo-Regular-f" transform="translate(63 0)"/>
       <use xlink:href="#AppleSDGothicNeo-Regular-19" transform="translate(85.59375 0)"/>
      </g>
     </g>
    </g>
    <g id="ytick_6">
     <g id="line2d_14">
      <path d="M 40.3875 54.787586 
L 520.2675 54.787586 
" clip-path="url(#pe5925e1817)" style="fill: none; stroke: #e5e4df; stroke-width: 0.8; stroke-linecap: square"/>
     </g>
     <g id="line2d_15">
      <g>
       <use xlink:href="#m4901c569d8" x="40.3875" y="54.787586" style="fill: #52514e; stroke: #52514e; stroke-width: 0.8"/>
      </g>
     </g>
     <g id="text_10">
      <!-- 1.0 -->
      <g style="fill: #52514e" transform="translate(24.18375 58.387586) scale(0.08 -0.08)">
       <defs>
        <path id="AppleSDGothicNeo-Regular-12" d="M 1146 243 
L 1632 243 
L 1632 4634 
L 1363 4634 
L 352 4160 
L 352 3866 
L 1146 4051 
L 1146 243 
z
" transform="scale(0.015625)"/>
       </defs>
       <use xlink:href="#AppleSDGothicNeo-Regular-12"/>
       <use xlink:href="#AppleSDGothicNeo-Regular-f" transform="translate(35.703125 0)"/>
       <use xlink:href="#AppleSDGothicNeo-Regular-11" transform="translate(58.296875 0)"/>
      </g>
     </g>
    </g>
    <g id="text_11">
     <!-- AUROC -->
     <g style="fill: #52514e" transform="translate(15.3 148.890781) rotate(-90) scale(0.09 -0.09)">
      <defs>
       <path id="AppleSDGothicNeo-Regular-22" d="M 122 269 
L 608 269 
L 1050 1523 
L 2771 1523 
L 3226 269 
L 3757 269 
L 2189 4563 
L 1696 4563 
L 122 269 
z
M 1901 3885 
L 1914 3885 
L 2611 1952 
L 1197 1952 
L 1901 3885 
z
" transform="scale(0.015625)"/>
       <path id="AppleSDGothicNeo-Regular-36" d="M 2112 192 
C 3136 192 3661 672 3661 1766 
L 3661 4570 
L 3187 4570 
L 3187 1792 
C 3187 870 2842 595 2131 595 
C 1421 595 1037 877 1037 1786 
L 1037 4570 
L 525 4570 
L 525 1760 
C 525 691 1101 192 2112 192 
z
" transform="scale(0.015625)"/>
       <path id="AppleSDGothicNeo-Regular-30" d="M 2182 198 
C 3360 198 4070 1011 4070 2362 
L 4070 2464 
C 4070 3872 3360 4634 2202 4634 
C 1018 4634 307 3821 307 2470 
L 307 2368 
C 307 960 1018 198 2182 198 
z
M 2195 614 
C 1235 614 851 1331 851 2368 
L 851 2566 
C 851 3526 1293 4218 2176 4218 
C 3149 4211 3526 3507 3526 2464 
L 3526 2266 
C 3526 1312 3085 614 2195 614 
z
" transform="scale(0.015625)"/>
       <path id="AppleSDGothicNeo-Regular-24" d="M 2182 198 
C 2688 198 3078 314 3366 480 
L 3366 909 
C 3098 774 2778 627 2246 627 
C 1261 627 851 1267 851 2368 
L 851 2579 
C 851 3718 1427 4205 2240 4205 
C 2662 4205 2982 4109 3322 3974 
L 3322 4397 
C 3059 4538 2726 4634 2266 4634 
C 1171 4634 314 4032 314 2496 
L 314 2368 
C 314 915 1024 198 2182 198 
z
" transform="scale(0.015625)"/>
      </defs>
      <use xlink:href="#AppleSDGothicNeo-Regular-22"/>
      <use xlink:href="#AppleSDGothicNeo-Regular-36" transform="translate(58.40625 0)"/>
      <use xlink:href="#AppleSDGothicNeo-Regular-33" transform="translate(123.703125 0)"/>
      <use xlink:href="#AppleSDGothicNeo-Regular-30" transform="translate(181.5 0)"/>
      <use xlink:href="#AppleSDGothicNeo-Regular-24" transform="translate(249.90625 0)"/>
     </g>
    </g>
   </g>
   <g id="line2d_16">
    <path d="M 40.3875 150.373793 
L 520.2675 150.373793 
" clip-path="url(#pe5925e1817)" style="fill: none; stroke-dasharray: 4,3; stroke-dashoffset: 0; stroke: #9c9a90"/>
   </g>
   <g id="patch_3">
    <path d="M 40.3875 245.96 
L 40.3875 24.2 
" style="fill: none; stroke: #e5e4df; stroke-linejoin: miter; stroke-linecap: square"/>
   </g>
   <g id="patch_4">
    <path d="M 40.3875 245.96 
L 520.2675 245.96 
" style="fill: none; stroke: #e5e4df; stroke-linejoin: miter; stroke-linecap: square"/>
   </g>
   <g id="patch_5">
    <path d="M 62.200227 245.96 
L 84.289065 245.96 
L 84.289065 79.294679 
L 62.200227 79.294679 
z
" clip-path="url(#pe5925e1817)" style="fill: #2a78d6; stroke: #fcfcfb; stroke-linejoin: miter"/>
   </g>
   <g id="patch_6">
    <path d="M 219.081177 245.96 
L 241.170015 245.96 
L 241.170015 90.420158 
L 219.081177 90.420158 
z
" clip-path="url(#pe5925e1817)" style="fill: #2a78d6; stroke: #fcfcfb; stroke-linejoin: miter"/>
   </g>
   <g id="patch_7">
    <path d="M 375.962127 245.96 
L 398.050965 245.96 
L 398.050965 92.059359 
L 375.962127 92.059359 
z
" clip-path="url(#pe5925e1817)" style="fill: #2a78d6; stroke: #fcfcfb; stroke-linejoin: miter"/>
   </g>
   <g id="patch_8">
    <path d="M 87.301179 245.96 
L 109.390017 245.96 
L 109.390017 86.609939 
L 87.301179 86.609939 
z
" clip-path="url(#pe5925e1817)" style="fill: #eb6834; stroke: #fcfcfb; stroke-linejoin: miter"/>
   </g>
   <g id="patch_9">
    <path d="M 244.182129 245.96 
L 266.270967 245.96 
L 266.270967 106.050818 
L 244.182129 106.050818 
z
" clip-path="url(#pe5925e1817)" style="fill: #eb6834; stroke: #fcfcfb; stroke-linejoin: miter"/>
   </g>
   <g id="patch_10">
    <path d="M 401.063079 245.96 
L 423.151917 245.96 
L 423.151917 114.045407 
L 401.063079 114.045407 
z
" clip-path="url(#pe5925e1817)" style="fill: #eb6834; stroke: #fcfcfb; stroke-linejoin: miter"/>
   </g>
   <g id="patch_11">
    <path d="M 112.402131 245.96 
L 134.490969 245.96 
L 134.490969 60.732938 
L 112.402131 60.732938 
z
" clip-path="url(#pe5925e1817)" style="fill: #1baf7a; stroke: #fcfcfb; stroke-linejoin: miter"/>
   </g>
   <g id="patch_12">
    <path d="M 269.283081 245.96 
L 291.371919 245.96 
L 291.371919 60.162181 
L 269.283081 60.162181 
z
" clip-path="url(#pe5925e1817)" style="fill: #1baf7a; stroke: #fcfcfb; stroke-linejoin: miter"/>
   </g>
   <g id="patch_13">
    <path d="M 426.164031 245.96 
L 448.252869 245.96 
L 448.252869 56.324366 
L 426.164031 56.324366 
z
" clip-path="url(#pe5925e1817)" style="fill: #1baf7a; stroke: #fcfcfb; stroke-linejoin: miter"/>
   </g>
   <g id="patch_14">
    <path d="M 137.503083 245.96 
L 159.591921 245.96 
L 159.591921 81.267617 
L 137.503083 81.267617 
z
" clip-path="url(#pe5925e1817)" style="fill: #eda100; stroke: #fcfcfb; stroke-linejoin: miter"/>
   </g>
   <g id="patch_15">
    <path d="M 294.384033 245.96 
L 316.472871 245.96 
L 316.472871 99.583379 
L 294.384033 99.583379 
z
" clip-path="url(#pe5925e1817)" style="fill: #eda100; stroke: #fcfcfb; stroke-linejoin: miter"/>
   </g>
   <g id="patch_16">
    <path d="M 451.264983 245.96 
L 473.353821 245.96 
L 473.353821 98.618883 
L 451.264983 98.618883 
z
" clip-path="url(#pe5925e1817)" style="fill: #eda100; stroke: #fcfcfb; stroke-linejoin: miter"/>
   </g>
   <g id="patch_17">
    <path d="M 162.604035 245.96 
L 184.692873 245.96 
L 184.692873 150.840571 
L 162.604035 150.840571 
z
" clip-path="url(#pe5925e1817)" style="fill: #9c9a90; stroke: #fcfcfb; stroke-linejoin: miter"/>
   </g>
   <g id="patch_18">
    <path d="M 319.484985 245.96 
L 341.573823 245.96 
L 341.573823 148.838462 
L 319.484985 148.838462 
z
" clip-path="url(#pe5925e1817)" style="fill: #9c9a90; stroke: #fcfcfb; stroke-linejoin: miter"/>
   </g>
   <g id="patch_19">
    <path d="M 476.365935 245.96 
L 498.454773 245.96 
L 498.454773 149.171062 
L 476.365935 149.171062 
z
" clip-path="url(#pe5925e1817)" style="fill: #9c9a90; stroke: #fcfcfb; stroke-linejoin: miter"/>
   </g>
   <g id="text_12">
    <!-- 길이·버전 통제 뒤의 층별 AUROC -->
    <g style="fill: #0b0b0b" transform="translate(40.3875 16.2) scale(0.1 -0.1)">
     <defs>
      <path id="AppleSDGothicNeo-Regular-4e1" d="M 5011 -410 
L 5011 -6 
L 1677 -6 
L 1677 608 
L 4806 608 
L 4806 1965 
L 1171 1965 
L 1171 1562 
L 4320 1562 
L 4320 979 
L 1190 979 
L 1190 -410 
L 5011 -410 
z
M 4813 2310 
L 4813 5146 
L 4326 5146 
L 4326 2310 
L 4813 2310 
z
M 602 4838 
L 602 4429 
L 2573 4429 
C 2374 3546 1542 2829 314 2515 
L 563 2112 
C 1926 2522 2989 3360 3136 4838 
L 602 4838 
z
" transform="scale(0.015625)"/>
      <path id="AppleSDGothicNeo-Regular-a49" d="M 4845 -448 
L 4845 5146 
L 4358 5146 
L 4358 -448 
L 4845 -448 
z
M 429 2752 
C 429 1562 954 768 1869 768 
C 2797 768 3315 1562 3315 2746 
C 3315 3930 2797 4723 1869 4723 
C 954 4723 429 3930 429 2752 
z
M 2854 2746 
C 2854 1830 2464 1190 1869 1190 
C 1280 1190 890 1830 890 2746 
C 890 3667 1280 4301 1869 4301 
C 2464 4301 2854 3667 2854 2746 
z
" transform="scale(0.015625)"/>
      <path id="AppleSDGothicNeo-Regular-68" d="M 640 2131 
L 1267 2131 
L 1267 2784 
L 640 2784 
L 640 2131 
z
" transform="scale(0.015625)"/>
      <path id="AppleSDGothicNeo-Regular-c3e" d="M 4698 2701 
L 4698 3085 
L 1338 3085 
L 1338 3635 
L 4563 3635 
L 4563 4006 
L 1338 4006 
L 1338 4525 
L 4659 4525 
L 4659 4915 
L 851 4915 
L 851 2701 
L 2522 2701 
L 2522 2170 
L 243 2170 
L 243 1766 
L 5293 1766 
L 5293 2170 
L 3008 2170 
L 3008 2701 
L 4698 2701 
z
M 4730 480 
C 4730 1094 4045 1427 2765 1427 
C 1491 1427 813 1062 813 480 
C 813 -109 1491 -461 2765 -461 
C 4045 -461 4730 -122 4730 480 
z
M 2765 1037 
C 3674 1037 4237 826 4237 480 
C 4237 134 3674 -64 2765 -64 
C 1862 -64 1306 134 1306 480 
C 1306 826 1862 1037 2765 1037 
z
" transform="scale(0.015625)"/>
      <path id="AppleSDGothicNeo-Regular-a81" d="M 3098 1229 
C 2406 1677 1882 2368 1882 3469 
L 1882 4083 
L 2957 4083 
L 2957 4486 
L 288 4486 
L 288 4083 
L 1402 4083 
L 1402 3456 
C 1402 2368 813 1485 154 1062 
L 480 723 
C 1024 1107 1530 1773 1645 2394 
C 1805 1805 2394 1152 2790 870 
L 3098 1229 
z
M 3853 -166 
L 3853 5011 
L 3373 5011 
L 3373 3091 
L 2477 3091 
L 2477 2688 
L 3373 2688 
L 3373 -166 
L 3853 -166 
z
M 4960 -448 
L 4960 5146 
L 4480 5146 
L 4480 -448 
L 4960 -448 
z
" transform="scale(0.015625)"/>
      <path id="AppleSDGothicNeo-Regular-64d" d="M 3520 2810 
L 3520 3213 
L 1190 3213 
L 1190 4435 
L 3456 4435 
L 3456 4838 
L 704 4838 
L 704 2810 
L 3520 2810 
z
M 4819 -448 
L 4819 5146 
L 4333 5146 
L 4333 -448 
L 4819 -448 
z
M 2330 -282 
L 2330 1766 
C 2938 1792 3699 1856 4032 1907 
L 3974 2291 
C 3558 2240 2790 2195 2061 2163 
C 1414 2144 800 2138 173 2138 
L 256 1702 
C 813 1702 1274 1722 1843 1741 
L 1843 -282 
L 2330 -282 
z
" transform="scale(0.015625)"/>
      <path id="AppleSDGothicNeo-Regular-a44" d="M 4352 5146 
L 4352 -448 
L 4838 -448 
L 4838 5146 
L 4352 5146 
z
M 3469 3379 
C 3469 4198 2842 4710 2016 4710 
C 1203 4710 557 4166 557 3379 
C 557 2630 1190 2080 2016 2080 
C 2822 2080 3469 2586 3469 3379 
z
M 2995 3379 
C 2995 2854 2547 2490 2016 2490 
C 1472 2490 1030 2861 1030 3379 
C 1030 3904 1478 4294 2016 4294 
C 2560 4294 2995 3942 2995 3379 
z
M 4026 973 
L 3981 1370 
C 3571 1318 2848 1274 2067 1248 
C 1389 1210 730 1197 250 1203 
L 339 774 
C 762 781 1376 800 2035 832 
C 2746 864 3546 915 4026 973 
z
" transform="scale(0.015625)"/>
      <path id="AppleSDGothicNeo-Regular-7f9" d="M 5018 -410 
L 5018 -13 
L 1664 -13 
L 1664 602 
L 4813 602 
L 4813 1914 
L 1171 1914 
L 1171 1517 
L 4326 1517 
L 4326 979 
L 1178 979 
L 1178 -410 
L 5018 -410 
z
M 4813 5146 
L 4326 5146 
L 4326 4371 
L 3290 4371 
L 3290 3968 
L 4326 3968 
L 4326 3309 
L 3290 3309 
L 3290 2906 
L 4326 2906 
L 4326 2202 
L 4813 2202 
L 4813 5146 
z
M 3008 2349 
L 3008 4890 
L 2522 4890 
L 2522 4038 
L 954 4038 
L 954 4890 
L 461 4890 
L 461 2349 
L 3008 2349 
z
M 2522 2752 
L 954 2752 
L 954 3635 
L 2522 3635 
L 2522 2752 
z
" transform="scale(0.015625)"/>
     </defs>
     <use xlink:href="#AppleSDGothicNeo-Regular-4e1"/>
     <use xlink:href="#AppleSDGothicNeo-Regular-a49" transform="translate(86.5 0)"/>
     <use xlink:href="#AppleSDGothicNeo-Regular-68" transform="translate(173 0)"/>
     <use xlink:href="#AppleSDGothicNeo-Regular-7e1" transform="translate(203.296875 0)"/>
     <use xlink:href="#AppleSDGothicNeo-Regular-a79" transform="translate(289.796875 0)"/>
     <use xlink:href="#AppleSDGothicNeo-Regular-1" transform="translate(376.296875 0)"/>
     <use xlink:href="#AppleSDGothicNeo-Regular-c3e" transform="translate(402.59375 0)"/>
     <use xlink:href="#AppleSDGothicNeo-Regular-a81" transform="translate(489.09375 0)"/>
     <use xlink:href="#AppleSDGothicNeo-Regular-1" transform="translate(575.59375 0)"/>
     <use xlink:href="#AppleSDGothicNeo-Regular-64d" transform="translate(601.890625 0)"/>
     <use xlink:href="#AppleSDGothicNeo-Regular-a44" transform="translate(688.390625 0)"/>
     <use xlink:href="#AppleSDGothicNeo-Regular-1" transform="translate(774.890625 0)"/>
     <use xlink:href="#AppleSDGothicNeo-Regular-b95" transform="translate(801.1875 0)"/>
     <use xlink:href="#AppleSDGothicNeo-Regular-7f9" transform="translate(887.6875 0)"/>
     <use xlink:href="#AppleSDGothicNeo-Regular-1" transform="translate(974.1875 0)"/>
     <use xlink:href="#AppleSDGothicNeo-Regular-22" transform="translate(1000.484375 0)"/>
     <use xlink:href="#AppleSDGothicNeo-Regular-36" transform="translate(1058.890625 0)"/>
     <use xlink:href="#AppleSDGothicNeo-Regular-33" transform="translate(1124.1875 0)"/>
     <use xlink:href="#AppleSDGothicNeo-Regular-30" transform="translate(1181.984375 0)"/>
     <use xlink:href="#AppleSDGothicNeo-Regular-24" transform="translate(1250.390625 0)"/>
    </g>
   </g>
   <g id="LineCollection_1">
    <path d="M 73.244646 84.152765 
L 73.244646 75.427805 
" clip-path="url(#pe5925e1817)" style="fill: none; stroke: #52514e"/>
   </g>
   <g id="line2d_17">
    <defs>
     <path id="mf637159165" d="M 3 0 
L -3 -0 
" style="stroke: #52514e"/>
    </defs>
    <g clip-path="url(#pe5925e1817)">
     <use xlink:href="#mf637159165" x="73.244646" y="84.152765" style="fill: #1f77b4; stroke: #52514e"/>
    </g>
   </g>
   <g id="line2d_18">
    <g clip-path="url(#pe5925e1817)">
     <use xlink:href="#mf637159165" x="73.244646" y="75.427805" style="fill: #1f77b4; stroke: #52514e"/>
    </g>
   </g>
   <g id="LineCollection_2">
    <path d="M 230.125596 98.130795 
L 230.125596 82.969182 
" clip-path="url(#pe5925e1817)" style="fill: none; stroke: #52514e"/>
   </g>
   <g id="line2d_19">
    <g clip-path="url(#pe5925e1817)">
     <use xlink:href="#mf637159165" x="230.125596" y="98.130795" style="fill: #1f77b4; stroke: #52514e"/>
    </g>
   </g>
   <g id="line2d_20">
    <g clip-path="url(#pe5925e1817)">
     <use xlink:href="#mf637159165" x="230.125596" y="82.969182" style="fill: #1f77b4; stroke: #52514e"/>
    </g>
   </g>
   <g id="LineCollection_3">
    <path d="M 387.006546 98.577618 
L 387.006546 86.029003 
" clip-path="url(#pe5925e1817)" style="fill: none; stroke: #52514e"/>
   </g>
   <g id="line2d_21">
    <g clip-path="url(#pe5925e1817)">
     <use xlink:href="#mf637159165" x="387.006546" y="98.577618" style="fill: #1f77b4; stroke: #52514e"/>
    </g>
   </g>
   <g id="line2d_22">
    <g clip-path="url(#pe5925e1817)">
     <use xlink:href="#mf637159165" x="387.006546" y="86.029003" style="fill: #1f77b4; stroke: #52514e"/>
    </g>
   </g>
   <g id="LineCollection_4">
    <path d="M 98.345598 92.872731 
L 98.345598 81.215249 
" clip-path="url(#pe5925e1817)" style="fill: none; stroke: #52514e"/>
   </g>
   <g id="line2d_23">
    <g clip-path="url(#pe5925e1817)">
     <use xlink:href="#mf637159165" x="98.345598" y="92.872731" style="fill: #1f77b4; stroke: #52514e"/>
    </g>
   </g>
   <g id="line2d_24">
    <g clip-path="url(#pe5925e1817)">
     <use xlink:href="#mf637159165" x="98.345598" y="81.215249" style="fill: #1f77b4; stroke: #52514e"/>
    </g>
   </g>
   <g id="LineCollection_5">
    <path d="M 255.226548 113.161884 
L 255.226548 98.235615 
" clip-path="url(#pe5925e1817)" style="fill: none; stroke: #52514e"/>
   </g>
   <g id="line2d_25">
    <g clip-path="url(#pe5925e1817)">
     <use xlink:href="#mf637159165" x="255.226548" y="113.161884" style="fill: #1f77b4; stroke: #52514e"/>
    </g>
   </g>
   <g id="line2d_26">
    <g clip-path="url(#pe5925e1817)">
     <use xlink:href="#mf637159165" x="255.226548" y="98.235615" style="fill: #1f77b4; stroke: #52514e"/>
    </g>
   </g>
   <g id="LineCollection_6">
    <path d="M 412.107498 121.847733 
L 412.107498 106.98288 
" clip-path="url(#pe5925e1817)" style="fill: none; stroke: #52514e"/>
   </g>
   <g id="line2d_27">
    <g clip-path="url(#pe5925e1817)">
     <use xlink:href="#mf637159165" x="412.107498" y="121.847733" style="fill: #1f77b4; stroke: #52514e"/>
    </g>
   </g>
   <g id="line2d_28">
    <g clip-path="url(#pe5925e1817)">
     <use xlink:href="#mf637159165" x="412.107498" y="106.98288" style="fill: #1f77b4; stroke: #52514e"/>
    </g>
   </g>
   <g id="LineCollection_7">
    <path d="M 173.648454 154.763972 
L 173.648454 146.688901 
" clip-path="url(#pe5925e1817)" style="fill: none; stroke: #52514e"/>
   </g>
   <g id="line2d_29">
    <g clip-path="url(#pe5925e1817)">
     <use xlink:href="#mf637159165" x="173.648454" y="154.763972" style="fill: #1f77b4; stroke: #52514e"/>
    </g>
   </g>
   <g id="line2d_30">
    <g clip-path="url(#pe5925e1817)">
     <use xlink:href="#mf637159165" x="173.648454" y="146.688901" style="fill: #1f77b4; stroke: #52514e"/>
    </g>
   </g>
   <g id="LineCollection_8">
    <path d="M 330.529404 152.430781 
L 330.529404 145.592575 
" clip-path="url(#pe5925e1817)" style="fill: none; stroke: #52514e"/>
   </g>
   <g id="line2d_31">
    <g clip-path="url(#pe5925e1817)">
     <use xlink:href="#mf637159165" x="330.529404" y="152.430781" style="fill: #1f77b4; stroke: #52514e"/>
    </g>
   </g>
   <g id="line2d_32">
    <g clip-path="url(#pe5925e1817)">
     <use xlink:href="#mf637159165" x="330.529404" y="145.592575" style="fill: #1f77b4; stroke: #52514e"/>
    </g>
   </g>
   <g id="LineCollection_9">
    <path d="M 487.410354 154.659073 
L 487.410354 142.758597 
" clip-path="url(#pe5925e1817)" style="fill: none; stroke: #52514e"/>
   </g>
   <g id="line2d_33">
    <g clip-path="url(#pe5925e1817)">
     <use xlink:href="#mf637159165" x="487.410354" y="154.659073" style="fill: #1f77b4; stroke: #52514e"/>
    </g>
   </g>
   <g id="line2d_34">
    <g clip-path="url(#pe5925e1817)">
     <use xlink:href="#mf637159165" x="487.410354" y="142.758597" style="fill: #1f77b4; stroke: #52514e"/>
    </g>
   </g>
   <g id="text_13">
    <!-- 0.872 -->
    <g style="fill: #52514e" transform="translate(75.194646 73.377805) rotate(-90) scale(0.065 -0.065)">
     <defs>
      <path id="AppleSDGothicNeo-Regular-18" d="M 710 243 
L 1274 243 
L 2957 4218 
L 2957 4544 
L 218 4544 
L 218 4115 
L 2400 4115 
L 710 243 
z
" transform="scale(0.015625)"/>
     </defs>
     <use xlink:href="#AppleSDGothicNeo-Regular-11"/>
     <use xlink:href="#AppleSDGothicNeo-Regular-f" transform="translate(63 0)"/>
     <use xlink:href="#AppleSDGothicNeo-Regular-19" transform="translate(85.59375 0)"/>
     <use xlink:href="#AppleSDGothicNeo-Regular-18" transform="translate(141 0)"/>
     <use xlink:href="#AppleSDGothicNeo-Regular-13" transform="translate(190 0)"/>
    </g>
   </g>
   <g id="text_14">
    <!-- 0.814 -->
    <g style="fill: #52514e" transform="translate(232.075596 80.919182) rotate(-90) scale(0.065 -0.065)">
     <use xlink:href="#AppleSDGothicNeo-Regular-11"/>
     <use xlink:href="#AppleSDGothicNeo-Regular-f" transform="translate(63 0)"/>
     <use xlink:href="#AppleSDGothicNeo-Regular-19" transform="translate(85.59375 0)"/>
     <use xlink:href="#AppleSDGothicNeo-Regular-12" transform="translate(142.09375 0)"/>
     <use xlink:href="#AppleSDGothicNeo-Regular-15" transform="translate(177.796875 0)"/>
    </g>
   </g>
   <g id="text_15">
    <!-- 0.805 -->
    <g style="fill: #52514e" transform="translate(388.956546 83.979003) rotate(-90) scale(0.065 -0.065)">
     <defs>
      <path id="AppleSDGothicNeo-Regular-16" d="M 1395 192 
C 2342 192 2906 838 2906 1606 
C 2906 2509 2374 2918 1510 2918 
C 1331 2918 1069 2874 896 2829 
L 986 4134 
L 2752 4134 
L 2752 4570 
L 576 4570 
L 422 2317 
C 621 2406 1024 2528 1318 2528 
C 1990 2528 2374 2266 2374 1613 
C 2374 1005 1978 621 1299 621 
C 947 621 525 768 288 928 
L 192 518 
C 448 333 896 192 1395 192 
z
" transform="scale(0.015625)"/>
     </defs>
     <use xlink:href="#AppleSDGothicNeo-Regular-11"/>
     <use xlink:href="#AppleSDGothicNeo-Regular-f" transform="translate(63 0)"/>
     <use xlink:href="#AppleSDGothicNeo-Regular-19" transform="translate(85.59375 0)"/>
     <use xlink:href="#AppleSDGothicNeo-Regular-11" transform="translate(143.09375 0)"/>
     <use xlink:href="#AppleSDGothicNeo-Regular-16" transform="translate(206.09375 0)"/>
    </g>
   </g>
   <g id="text_16">
    <!-- 0.834 -->
    <g style="fill: #52514e" transform="translate(100.295598 79.165249) rotate(-90) scale(0.065 -0.065)">
     <use xlink:href="#AppleSDGothicNeo-Regular-11"/>
     <use xlink:href="#AppleSDGothicNeo-Regular-f" transform="translate(63 0)"/>
     <use xlink:href="#AppleSDGothicNeo-Regular-19" transform="translate(85.59375 0)"/>
     <use xlink:href="#AppleSDGothicNeo-Regular-14" transform="translate(143.09375 0)"/>
     <use xlink:href="#AppleSDGothicNeo-Regular-15" transform="translate(196.6875 0)"/>
    </g>
   </g>
   <g id="text_17">
    <!-- 0.732 -->
    <g style="fill: #52514e" transform="translate(257.176548 96.185615) rotate(-90) scale(0.065 -0.065)">
     <use xlink:href="#AppleSDGothicNeo-Regular-11"/>
     <use xlink:href="#AppleSDGothicNeo-Regular-f" transform="translate(63 0)"/>
     <use xlink:href="#AppleSDGothicNeo-Regular-18" transform="translate(85.59375 0)"/>
     <use xlink:href="#AppleSDGothicNeo-Regular-14" transform="translate(134.59375 0)"/>
     <use xlink:href="#AppleSDGothicNeo-Regular-13" transform="translate(186.09375 0)"/>
    </g>
   </g>
   <g id="text_18">
    <!-- 0.690 -->
    <g style="fill: #52514e" transform="translate(414.057498 104.93288) rotate(-90) scale(0.065 -0.065)">
     <defs>
      <path id="AppleSDGothicNeo-Regular-1a" d="M 1696 4634 
C 826 4634 307 3949 307 3142 
C 307 2323 896 1798 1619 1798 
C 2093 1798 2445 2010 2675 2272 
C 2630 1069 2227 621 1523 621 
C 1178 621 832 723 646 832 
L 506 461 
C 704 326 1107 192 1549 192 
C 2586 192 3187 979 3187 2477 
L 3187 2758 
C 3187 3974 2656 4634 1696 4634 
z
M 1702 4211 
C 2387 4211 2675 3686 2675 2886 
L 2675 2765 
C 2496 2515 2131 2227 1722 2227 
C 1203 2227 813 2515 813 3187 
C 813 3782 1146 4211 1702 4211 
z
" transform="scale(0.015625)"/>
     </defs>
     <use xlink:href="#AppleSDGothicNeo-Regular-11"/>
     <use xlink:href="#AppleSDGothicNeo-Regular-f" transform="translate(63 0)"/>
     <use xlink:href="#AppleSDGothicNeo-Regular-17" transform="translate(85.59375 0)"/>
     <use xlink:href="#AppleSDGothicNeo-Regular-1a" transform="translate(138.796875 0)"/>
     <use xlink:href="#AppleSDGothicNeo-Regular-11" transform="translate(194.203125 0)"/>
    </g>
   </g>
   <g id="text_19">
    <!-- 0.969 -->
    <g style="fill: #52514e" transform="translate(125.39655 58.682938) rotate(-90) scale(0.065 -0.065)">
     <use xlink:href="#AppleSDGothicNeo-Regular-11"/>
     <use xlink:href="#AppleSDGothicNeo-Regular-f" transform="translate(63 0)"/>
     <use xlink:href="#AppleSDGothicNeo-Regular-1a" transform="translate(85.59375 0)"/>
     <use xlink:href="#AppleSDGothicNeo-Regular-17" transform="translate(141 0)"/>
     <use xlink:href="#AppleSDGothicNeo-Regular-1a" transform="translate(194.203125 0)"/>
    </g>
   </g>
   <g id="text_20">
    <!-- 0.972 -->
    <g style="fill: #52514e" transform="translate(282.2775 58.112181) rotate(-90) scale(0.065 -0.065)">
     <use xlink:href="#AppleSDGothicNeo-Regular-11"/>
     <use xlink:href="#AppleSDGothicNeo-Regular-f" transform="translate(63 0)"/>
     <use xlink:href="#AppleSDGothicNeo-Regular-1a" transform="translate(85.59375 0)"/>
     <use xlink:href="#AppleSDGothicNeo-Regular-18" transform="translate(138.796875 0)"/>
     <use xlink:href="#AppleSDGothicNeo-Regular-13" transform="translate(187.796875 0)"/>
    </g>
   </g>
   <g id="text_21">
    <!-- 0.992 -->
    <g style="fill: #52514e" transform="translate(439.15845 54.274366) rotate(-90) scale(0.065 -0.065)">
     <use xlink:href="#AppleSDGothicNeo-Regular-11"/>
     <use xlink:href="#AppleSDGothicNeo-Regular-f" transform="translate(63 0)"/>
     <use xlink:href="#AppleSDGothicNeo-Regular-1a" transform="translate(85.59375 0)"/>
     <use xlink:href="#AppleSDGothicNeo-Regular-1a" transform="translate(140.09375 0)"/>
     <use xlink:href="#AppleSDGothicNeo-Regular-13" transform="translate(193.90625 0)"/>
    </g>
   </g>
   <g id="text_22">
    <!-- 0.861 -->
    <g style="fill: #52514e" transform="translate(150.497502 79.217617) rotate(-90) scale(0.065 -0.065)">
     <use xlink:href="#AppleSDGothicNeo-Regular-11"/>
     <use xlink:href="#AppleSDGothicNeo-Regular-f" transform="translate(63 0)"/>
     <use xlink:href="#AppleSDGothicNeo-Regular-19" transform="translate(85.59375 0)"/>
     <use xlink:href="#AppleSDGothicNeo-Regular-17" transform="translate(143.09375 0)"/>
     <use xlink:href="#AppleSDGothicNeo-Regular-12" transform="translate(195.5 0)"/>
    </g>
   </g>
   <g id="text_23">
    <!-- 0.766 -->
    <g style="fill: #52514e" transform="translate(307.378452 97.533379) rotate(-90) scale(0.065 -0.065)">
     <use xlink:href="#AppleSDGothicNeo-Regular-11"/>
     <use xlink:href="#AppleSDGothicNeo-Regular-f" transform="translate(63 0)"/>
     <use xlink:href="#AppleSDGothicNeo-Regular-18" transform="translate(85.59375 0)"/>
     <use xlink:href="#AppleSDGothicNeo-Regular-17" transform="translate(133.5 0)"/>
     <use xlink:href="#AppleSDGothicNeo-Regular-17" transform="translate(188.90625 0)"/>
    </g>
   </g>
   <g id="text_24">
    <!-- 0.771 -->
    <g style="fill: #52514e" transform="translate(464.259402 96.568883) rotate(-90) scale(0.065 -0.065)">
     <use xlink:href="#AppleSDGothicNeo-Regular-11"/>
     <use xlink:href="#AppleSDGothicNeo-Regular-f" transform="translate(63 0)"/>
     <use xlink:href="#AppleSDGothicNeo-Regular-18" transform="translate(85.59375 0)"/>
     <use xlink:href="#AppleSDGothicNeo-Regular-18" transform="translate(135.6875 0)"/>
     <use xlink:href="#AppleSDGothicNeo-Regular-12" transform="translate(185.78125 0)"/>
    </g>
   </g>
   <g id="text_25">
    <!-- 0.498 -->
    <g style="fill: #52514e" transform="translate(175.598454 144.638901) rotate(-90) scale(0.065 -0.065)">
     <use xlink:href="#AppleSDGothicNeo-Regular-11"/>
     <use xlink:href="#AppleSDGothicNeo-Regular-f" transform="translate(63 0)"/>
     <use xlink:href="#AppleSDGothicNeo-Regular-15" transform="translate(85.59375 0)"/>
     <use xlink:href="#AppleSDGothicNeo-Regular-1a" transform="translate(139 0)"/>
     <use xlink:href="#AppleSDGothicNeo-Regular-19" transform="translate(194.40625 0)"/>
    </g>
   </g>
   <g id="text_26">
    <!-- 0.508 -->
    <g style="fill: #52514e" transform="translate(332.479404 143.542575) rotate(-90) scale(0.065 -0.065)">
     <use xlink:href="#AppleSDGothicNeo-Regular-11"/>
     <use xlink:href="#AppleSDGothicNeo-Regular-f" transform="translate(63 0)"/>
     <use xlink:href="#AppleSDGothicNeo-Regular-16" transform="translate(85.59375 0)"/>
     <use xlink:href="#AppleSDGothicNeo-Regular-11" transform="translate(135.5 0)"/>
     <use xlink:href="#AppleSDGothicNeo-Regular-19" transform="translate(198.5 0)"/>
    </g>
   </g>
   <g id="text_27">
    <!-- 0.506 -->
    <g style="fill: #52514e" transform="translate(489.360354 140.708597) rotate(-90) scale(0.065 -0.065)">
     <use xlink:href="#AppleSDGothicNeo-Regular-11"/>
     <use xlink:href="#AppleSDGothicNeo-Regular-f" transform="translate(63 0)"/>
     <use xlink:href="#AppleSDGothicNeo-Regular-16" transform="translate(85.59375 0)"/>
     <use xlink:href="#AppleSDGothicNeo-Regular-11" transform="translate(135.5 0)"/>
     <use xlink:href="#AppleSDGothicNeo-Regular-17" transform="translate(198.5 0)"/>
    </g>
   </g>
  </g>
  <g id="legend_1">
   <g id="patch_20">
    <path d="M 73.396875 320.84 
L 89.396875 320.84 
L 89.396875 315.24 
L 73.396875 315.24 
z
" style="fill: #2a78d6; stroke: #fcfcfb; stroke-linejoin: miter"/>
   </g>
   <g id="text_28">
    <!-- SmallCNN -->
    <g style="fill: #52514e" transform="translate(95.796875 320.84) scale(0.08 -0.08)">
     <defs>
      <path id="AppleSDGothicNeo-Regular-34" d="M 1472 192 
C 2477 192 2912 691 2912 1440 
C 2912 2163 2509 2432 1875 2650 
L 1453 2784 
C 966 2950 813 3130 813 3539 
C 813 3949 1107 4205 1632 4205 
C 2106 4205 2445 4083 2694 3968 
L 2694 4397 
C 2458 4512 2157 4634 1651 4634 
C 755 4634 314 4160 314 3494 
C 314 2842 653 2534 1254 2336 
L 1670 2189 
C 2189 2022 2400 1843 2400 1402 
C 2400 934 2112 627 1453 627 
C 998 627 576 742 250 909 
L 250 480 
C 538 320 947 192 1472 192 
z
" transform="scale(0.015625)"/>
      <path id="AppleSDGothicNeo-Regular-4e" d="M 467 269 
L 954 269 
L 954 2848 
C 1210 2970 1491 3078 1760 3078 
C 2182 3078 2336 2918 2336 2534 
L 2336 269 
L 2822 269 
L 2822 2637 
C 2822 2714 2816 2771 2803 2848 
C 3104 2982 3373 3078 3622 3078 
C 4051 3078 4205 2918 4205 2534 
L 4205 269 
L 4685 269 
L 4685 2637 
C 4685 3251 4365 3501 3814 3501 
C 3456 3501 3085 3373 2739 3149 
L 2714 3149 
C 2566 3386 2310 3501 1952 3501 
C 1594 3501 1254 3354 960 3168 
L 934 3168 
L 934 3443 
L 467 3443 
L 467 269 
z
" transform="scale(0.015625)"/>
      <path id="AppleSDGothicNeo-Regular-42" d="M 1242 211 
C 1670 211 1939 365 2086 544 
L 2118 544 
L 2170 269 
L 2566 269 
L 2566 2566 
C 2566 3213 2176 3501 1478 3501 
C 1114 3501 806 3443 531 3328 
L 531 2976 
C 730 3034 979 3078 1286 3078 
C 1856 3078 2074 2950 2074 2458 
L 2074 2125 
L 1216 2022 
C 608 1952 250 1658 250 1101 
C 250 506 666 211 1242 211 
z
M 1363 595 
C 998 595 762 768 762 1114 
C 762 1478 954 1638 1344 1677 
L 2074 1760 
L 2074 826 
C 1939 691 1658 595 1363 595 
z
" transform="scale(0.015625)"/>
      <path id="AppleSDGothicNeo-Regular-4d" d="M 480 269 
L 973 269 
L 973 4851 
L 480 4851 
L 480 269 
z
" transform="scale(0.015625)"/>
      <path id="AppleSDGothicNeo-Regular-2f" d="M 550 269 
L 1024 269 
L 1024 3872 
L 1043 3872 
L 3174 269 
L 3699 269 
L 3699 4563 
L 3238 4563 
L 3238 1126 
L 3219 1126 
L 1152 4563 
L 550 4563 
L 550 269 
z
" transform="scale(0.015625)"/>
     </defs>
     <use xlink:href="#AppleSDGothicNeo-Regular-34"/>
     <use xlink:href="#AppleSDGothicNeo-Regular-4e" transform="translate(50.40625 0)"/>
     <use xlink:href="#AppleSDGothicNeo-Regular-42" transform="translate(130.703125 0)"/>
     <use xlink:href="#AppleSDGothicNeo-Regular-4d" transform="translate(177.90625 0)"/>
     <use xlink:href="#AppleSDGothicNeo-Regular-4d" transform="translate(200.609375 0)"/>
     <use xlink:href="#AppleSDGothicNeo-Regular-24" transform="translate(223.3125 0)"/>
     <use xlink:href="#AppleSDGothicNeo-Regular-2f" transform="translate(280.3125 0)"/>
     <use xlink:href="#AppleSDGothicNeo-Regular-2f" transform="translate(346.90625 0)"/>
    </g>
   </g>
   <g id="patch_21">
    <path d="M 144.876875 320.84 
L 160.876875 320.84 
L 160.876875 315.24 
L 144.876875 315.24 
z
" style="fill: #eb6834; stroke: #fcfcfb; stroke-linejoin: miter"/>
   </g>
   <g id="text_29">
    <!-- BitMLP -->
    <g style="fill: #52514e" transform="translate(167.276875 320.84) scale(0.08 -0.08)">
     <defs>
      <path id="AppleSDGothicNeo-Regular-23" d="M 550 269 
L 1990 269 
C 2957 269 3443 768 3443 1478 
C 3443 2131 3059 2432 2534 2515 
L 2534 2547 
C 3040 2694 3251 3034 3251 3482 
C 3251 4166 2854 4563 1862 4563 
L 550 4563 
L 550 269 
z
M 1056 691 
L 1056 2285 
L 1907 2285 
C 2547 2285 2906 2067 2906 1510 
C 2906 960 2579 691 1958 691 
L 1056 691 
z
M 1056 2688 
L 1056 4134 
L 1824 4134 
C 2426 4134 2733 3962 2733 3424 
C 2733 2867 2330 2688 1792 2688 
L 1056 2688 
z
" transform="scale(0.015625)"/>
      <path id="AppleSDGothicNeo-Regular-4a" d="M 486 269 
L 973 269 
L 973 3437 
L 486 3437 
L 486 269 
z
M 480 4077 
L 979 4077 
L 979 4589 
L 480 4589 
L 480 4077 
z
" transform="scale(0.015625)"/>
      <path id="AppleSDGothicNeo-Regular-55" d="M 1472 230 
C 1747 230 1882 301 2010 358 
L 2010 691 
C 1882 653 1734 634 1600 634 
C 1235 634 1133 755 1133 1062 
L 1133 3034 
L 1946 3034 
L 1946 3437 
L 1133 3437 
L 1133 4192 
L 646 4192 
L 646 3437 
L 192 3437 
L 192 3034 
L 646 3034 
L 646 986 
C 646 448 973 230 1472 230 
z
" transform="scale(0.015625)"/>
      <path id="AppleSDGothicNeo-Regular-2e" d="M 550 269 
L 1024 269 
L 1024 3898 
L 1043 3898 
L 2285 269 
L 2758 269 
L 4013 3898 
L 4032 3898 
L 4032 269 
L 4544 269 
L 4544 4563 
L 3795 4563 
L 2560 934 
L 2547 934 
L 1306 4563 
L 550 4563 
L 550 269 
z
" transform="scale(0.015625)"/>
      <path id="AppleSDGothicNeo-Regular-2d" d="M 550 269 
L 3002 269 
L 3002 698 
L 1062 698 
L 1062 4563 
L 550 4563 
L 550 269 
z
" transform="scale(0.015625)"/>
      <path id="AppleSDGothicNeo-Regular-31" d="M 550 269 
L 1062 269 
L 1062 1990 
L 1939 1990 
C 2758 1990 3309 2451 3309 3296 
C 3309 4102 2842 4563 1875 4563 
L 550 4563 
L 550 269 
z
M 1062 2413 
L 1062 4134 
L 1824 4134 
C 2522 4134 2765 3872 2765 3264 
C 2765 2688 2502 2413 1837 2413 
L 1062 2413 
z
" transform="scale(0.015625)"/>
     </defs>
     <use xlink:href="#AppleSDGothicNeo-Regular-23"/>
     <use xlink:href="#AppleSDGothicNeo-Regular-4a" transform="translate(58.59375 0)"/>
     <use xlink:href="#AppleSDGothicNeo-Regular-55" transform="translate(81.296875 0)"/>
     <use xlink:href="#AppleSDGothicNeo-Regular-2e" transform="translate(116.296875 0)"/>
     <use xlink:href="#AppleSDGothicNeo-Regular-2d" transform="translate(195.890625 0)"/>
     <use xlink:href="#AppleSDGothicNeo-Regular-31" transform="translate(246.390625 0)"/>
    </g>
   </g>
   <g id="patch_22">
    <path d="M 207.411875 320.84 
L 223.411875 320.84 
L 223.411875 315.24 
L 207.411875 315.24 
z
" style="fill: #1baf7a; stroke: #fcfcfb; stroke-linejoin: miter"/>
   </g>
   <g id="text_30">
    <!-- char n-gram LR (참조) -->
    <g style="fill: #52514e" transform="translate(229.811875 320.84) scale(0.08 -0.08)">
     <defs>
      <path id="AppleSDGothicNeo-Regular-44" d="M 1734 211 
C 2176 211 2458 339 2662 461 
L 2662 858 
C 2502 768 2221 634 1792 634 
C 1114 634 774 998 774 1811 
L 774 1965 
C 774 2694 1152 3085 1728 3085 
C 2144 3085 2349 3008 2630 2880 
L 2630 3290 
C 2419 3424 2170 3501 1754 3501 
C 934 3501 269 3014 269 1888 
L 269 1792 
C 269 749 826 211 1734 211 
z
" transform="scale(0.015625)"/>
      <path id="AppleSDGothicNeo-Regular-49" d="M 467 269 
L 954 269 
L 954 2842 
C 1216 2970 1549 3078 1850 3078 
C 2355 3078 2490 2918 2490 2534 
L 2490 269 
L 2976 269 
L 2976 2630 
C 2976 3245 2675 3501 2054 3501 
C 1664 3501 1261 3366 986 3168 
L 954 3168 
L 954 4851 
L 467 4851 
L 467 269 
z
" transform="scale(0.015625)"/>
      <path id="AppleSDGothicNeo-Regular-53" d="M 467 269 
L 960 269 
L 960 2765 
C 1184 2925 1491 3040 1811 3040 
C 1862 3040 1958 3034 2042 3021 
L 2042 3462 
C 2010 3469 1920 3475 1850 3475 
C 1491 3475 1146 3290 966 3085 
L 934 3085 
L 934 3443 
L 467 3443 
L 467 269 
z
" transform="scale(0.015625)"/>
      <path id="AppleSDGothicNeo-Regular-4f" d="M 467 269 
L 954 269 
L 954 2848 
C 1216 2970 1549 3078 1850 3078 
C 2355 3078 2490 2918 2490 2534 
L 2490 269 
L 2976 269 
L 2976 2637 
C 2976 3251 2675 3501 2054 3501 
C 1664 3501 1254 3360 960 3168 
L 934 3168 
L 934 3443 
L 467 3443 
L 467 269 
z
" transform="scale(0.015625)"/>
      <path id="AppleSDGothicNeo-Regular-e" d="M 333 2138 
L 2445 2138 
L 2445 2560 
L 333 2560 
L 333 2138 
z
" transform="scale(0.015625)"/>
      <path id="AppleSDGothicNeo-Regular-48" d="M 1574 -672 
C 2656 -672 3091 -243 3091 301 
C 3091 890 2662 1062 2086 1062 
L 1210 1062 
C 998 1062 896 1126 896 1299 
C 896 1402 960 1478 1043 1555 
C 1210 1498 1389 1466 1587 1466 
C 2253 1466 2778 1805 2778 2483 
L 2778 2490 
C 2778 2739 2694 2931 2547 3072 
L 3117 3072 
L 3117 3450 
L 2042 3450 
C 1901 3482 1754 3501 1594 3501 
C 896 3501 397 3136 397 2477 
L 397 2464 
C 397 2086 550 1830 794 1670 
C 550 1491 435 1344 435 1146 
C 435 934 576 800 755 749 
L 755 717 
C 429 608 154 410 154 70 
C 154 -390 608 -672 1574 -672 
z
M 1562 -288 
C 934 -288 666 -147 666 134 
C 666 403 851 544 1094 627 
L 2010 627 
C 2426 627 2579 531 2579 237 
C 2579 -96 2310 -288 1562 -288 
z
M 1587 1850 
C 1165 1850 883 2054 883 2470 
L 883 2502 
C 883 2899 1152 3130 1587 3130 
C 2016 3130 2285 2931 2285 2496 
L 2285 2464 
C 2285 2054 2029 1850 1587 1850 
z
" transform="scale(0.015625)"/>
      <path id="AppleSDGothicNeo-Regular-9" d="M 1472 -384 
L 1914 -384 
C 1344 256 883 1235 883 2221 
L 883 2374 
C 883 3392 1344 4307 1914 4941 
L 1472 4941 
C 883 4339 365 3469 365 2330 
L 365 2227 
C 365 1094 883 218 1472 -384 
z
" transform="scale(0.015625)"/>
      <path id="AppleSDGothicNeo-Regular-b35" d="M 4544 -371 
L 4544 1523 
L 986 1523 
L 986 -371 
L 4544 -371 
z
M 320 3648 
L 1568 3648 
C 1530 2963 877 2323 160 2112 
L 429 1741 
C 1069 1965 1651 2522 1837 3021 
C 2099 2515 2688 2054 3181 1901 
L 3430 2278 
C 2797 2438 2144 2976 2086 3648 
L 3322 3648 
L 3322 4045 
L 320 4045 
L 320 3648 
z
M 4058 32 
L 1472 32 
L 1472 1120 
L 4058 1120 
L 4058 32 
z
M 5395 3232 
L 5395 3642 
L 4544 3642 
L 4544 5146 
L 4058 5146 
L 4058 1818 
L 4544 1818 
L 4544 3232 
L 5395 3232 
z
M 1050 4563 
L 2611 4563 
L 2611 4979 
L 1050 4979 
L 1050 4563 
z
" transform="scale(0.015625)"/>
      <path id="AppleSDGothicNeo-Regular-a91" d="M 4870 4186 
L 4870 4576 
L 672 4576 
L 672 4186 
L 2515 4186 
L 2515 4070 
C 2515 3174 1331 2368 448 2214 
L 678 1805 
C 1606 2042 2534 2726 2765 3360 
C 3034 2746 3955 2048 4851 1792 
L 5101 2202 
C 4262 2368 3027 3187 3027 4070 
L 3027 4186 
L 4870 4186 
z
M 5293 262 
L 5293 672 
L 3002 672 
L 3002 2067 
L 2515 2067 
L 2515 672 
L 243 672 
L 243 262 
L 5293 262 
z
" transform="scale(0.015625)"/>
      <path id="AppleSDGothicNeo-Regular-a" d="M 115 -384 
L 550 -384 
C 1146 218 1651 1088 1651 2227 
L 1651 2330 
C 1651 3462 1146 4339 550 4941 
L 115 4941 
C 678 4301 1146 3322 1146 2336 
L 1146 2176 
C 1146 1165 678 250 115 -384 
z
" transform="scale(0.015625)"/>
     </defs>
     <use xlink:href="#AppleSDGothicNeo-Regular-44"/>
     <use xlink:href="#AppleSDGothicNeo-Regular-49" transform="translate(45 0)"/>
     <use xlink:href="#AppleSDGothicNeo-Regular-42" transform="translate(98.59375 0)"/>
     <use xlink:href="#AppleSDGothicNeo-Regular-53" transform="translate(145.796875 0)"/>
     <use xlink:href="#AppleSDGothicNeo-Regular-1" transform="translate(180.390625 0)"/>
     <use xlink:href="#AppleSDGothicNeo-Regular-4f" transform="translate(206.6875 0)"/>
     <use xlink:href="#AppleSDGothicNeo-Regular-e" transform="translate(260.28125 0)"/>
     <use xlink:href="#AppleSDGothicNeo-Regular-48" transform="translate(302.390625 0)"/>
     <use xlink:href="#AppleSDGothicNeo-Regular-53" transform="translate(352.984375 0)"/>
     <use xlink:href="#AppleSDGothicNeo-Regular-42" transform="translate(386.484375 0)"/>
     <use xlink:href="#AppleSDGothicNeo-Regular-4e" transform="translate(433.6875 0)"/>
     <use xlink:href="#AppleSDGothicNeo-Regular-1" transform="translate(513.984375 0)"/>
     <use xlink:href="#AppleSDGothicNeo-Regular-2d" transform="translate(540.28125 0)"/>
     <use xlink:href="#AppleSDGothicNeo-Regular-33" transform="translate(590.78125 0)"/>
     <use xlink:href="#AppleSDGothicNeo-Regular-1" transform="translate(648.578125 0)"/>
     <use xlink:href="#AppleSDGothicNeo-Regular-9" transform="translate(674.875 0)"/>
     <use xlink:href="#AppleSDGothicNeo-Regular-b35" transform="translate(706.578125 0)"/>
     <use xlink:href="#AppleSDGothicNeo-Regular-a91" transform="translate(793.078125 0)"/>
     <use xlink:href="#AppleSDGothicNeo-Regular-a" transform="translate(879.578125 0)"/>
    </g>
   </g>
   <g id="patch_23">
    <path d="M 318.714375 320.84 
L 334.714375 320.84 
L 334.714375 315.24 
L 318.714375 315.24 
z
" style="fill: #eda100; stroke: #fcfcfb; stroke-linejoin: miter"/>
   </g>
   <g id="text_31">
    <!-- byte-hist LR -->
    <g style="fill: #52514e" transform="translate(341.114375 320.84) scale(0.08 -0.08)">
     <defs>
      <path id="AppleSDGothicNeo-Regular-43" d="M 1626 198 
C 2650 198 3206 800 3206 1862 
L 3206 1946 
C 3206 3136 2579 3501 1971 3501 
C 1536 3501 1235 3379 992 3232 
L 960 3232 
L 960 4851 
L 467 4851 
L 467 371 
C 749 262 1254 198 1626 198 
z
M 1651 608 
C 1331 608 1107 659 960 723 
L 960 2880 
C 1126 2957 1421 3085 1747 3085 
C 2387 3085 2694 2797 2694 1914 
L 2694 1786 
C 2694 877 2221 608 1651 608 
z
" transform="scale(0.015625)"/>
      <path id="AppleSDGothicNeo-Regular-5a" d="M 710 -685 
C 1235 -685 1498 -493 1709 70 
L 2957 3443 
L 2464 3443 
L 1606 1030 
L 1594 1030 
L 659 3443 
L 134 3443 
L 1350 384 
L 1254 122 
C 1120 -224 928 -275 621 -275 
C 506 -275 390 -243 314 -230 
L 314 -595 
C 403 -640 563 -685 710 -685 
z
" transform="scale(0.015625)"/>
      <path id="AppleSDGothicNeo-Regular-46" d="M 1773 211 
C 2285 211 2650 371 2842 506 
L 2842 870 
C 2554 736 2272 634 1850 634 
C 1171 634 794 941 768 1734 
L 2931 1734 
L 2931 2010 
C 2931 2995 2522 3501 1651 3501 
C 922 3501 269 3008 269 1901 
L 269 1811 
C 269 819 774 211 1773 211 
z
M 1638 3104 
C 2157 3104 2419 2816 2419 2125 
L 768 2125 
C 819 2874 1242 3104 1638 3104 
z
" transform="scale(0.015625)"/>
      <path id="AppleSDGothicNeo-Regular-54" d="M 1274 218 
C 1971 218 2394 550 2394 1152 
C 2394 1702 2144 1907 1536 2067 
L 1216 2157 
C 877 2253 742 2368 742 2643 
C 742 2938 954 3085 1382 3085 
C 1734 3085 2054 3002 2221 2918 
L 2221 3315 
C 2054 3405 1779 3501 1357 3501 
C 627 3501 275 3136 275 2598 
C 275 2061 589 1850 1050 1722 
L 1363 1638 
C 1766 1523 1914 1395 1914 1101 
C 1914 813 1709 634 1203 634 
C 755 634 525 730 250 832 
L 250 442 
C 512 294 858 218 1274 218 
z
" transform="scale(0.015625)"/>
     </defs>
     <use xlink:href="#AppleSDGothicNeo-Regular-43"/>
     <use xlink:href="#AppleSDGothicNeo-Regular-5a" transform="translate(54.5 0)"/>
     <use xlink:href="#AppleSDGothicNeo-Regular-55" transform="translate(102.703125 0)"/>
     <use xlink:href="#AppleSDGothicNeo-Regular-46" transform="translate(137.703125 0)"/>
     <use xlink:href="#AppleSDGothicNeo-Regular-e" transform="translate(187.703125 0)"/>
     <use xlink:href="#AppleSDGothicNeo-Regular-49" transform="translate(230.90625 0)"/>
     <use xlink:href="#AppleSDGothicNeo-Regular-4a" transform="translate(284.5 0)"/>
     <use xlink:href="#AppleSDGothicNeo-Regular-54" transform="translate(307.203125 0)"/>
     <use xlink:href="#AppleSDGothicNeo-Regular-55" transform="translate(348.703125 0)"/>
     <use xlink:href="#AppleSDGothicNeo-Regular-1" transform="translate(383.703125 0)"/>
     <use xlink:href="#AppleSDGothicNeo-Regular-2d" transform="translate(410 0)"/>
     <use xlink:href="#AppleSDGothicNeo-Regular-33" transform="translate(460.5 0)"/>
    </g>
   </g>
   <g id="patch_24">
    <path d="M 398.578125 320.84 
L 414.578125 320.84 
L 414.578125 315.24 
L 398.578125 315.24 
z
" style="fill: #9c9a90; stroke: #fcfcfb; stroke-linejoin: miter"/>
   </g>
   <g id="text_32">
    <!-- 라벨 셔플 (바닥) -->
    <g style="fill: #52514e" transform="translate(420.978125 320.84) scale(0.08 -0.08)">
     <defs>
      <path id="AppleSDGothicNeo-Regular-6c4" d="M 4538 5146 
L 4058 5146 
L 4058 -448 
L 4538 -448 
L 4538 2483 
L 5440 2483 
L 5440 2893 
L 4538 2893 
L 4538 5146 
z
M 3565 1485 
C 2816 1344 1824 1286 934 1293 
L 934 2643 
L 3021 2643 
L 3021 4627 
L 435 4627 
L 435 4224 
L 2534 4224 
L 2534 3046 
L 448 3046 
L 448 883 
L 922 883 
C 1837 883 3002 966 3629 1094 
L 3565 1485 
z
" transform="scale(0.015625)"/>
      <path id="AppleSDGothicNeo-Regular-7f0" d="M 2688 2534 
L 2688 3526 
L 3430 3526 
L 3430 2253 
L 3898 2253 
L 3898 5030 
L 3430 5030 
L 3430 3930 
L 2688 3930 
L 2688 4909 
L 2214 4909 
L 2214 4147 
L 973 4147 
L 973 4909 
L 499 4909 
L 499 2534 
L 2688 2534 
z
M 5165 -410 
L 5165 -6 
L 1779 -6 
L 1779 589 
L 4960 589 
L 4960 1907 
L 1274 1907 
L 1274 1504 
L 4467 1504 
L 4467 960 
L 1293 960 
L 1293 -410 
L 5165 -410 
z
M 4960 2202 
L 4960 5146 
L 4474 5146 
L 4474 2202 
L 4960 2202 
z
M 2214 2938 
L 973 2938 
L 973 3744 
L 2214 3744 
L 2214 2938 
z
" transform="scale(0.015625)"/>
      <path id="AppleSDGothicNeo-Regular-8ca" d="M 3085 2106 
L 4352 2106 
L 4352 -448 
L 4838 -448 
L 4838 5146 
L 4352 5146 
L 4352 3904 
L 3085 3904 
L 3085 3501 
L 4352 3501 
L 4352 2515 
L 3085 2515 
L 3085 2106 
z
M 3590 1261 
C 2822 1709 2157 2618 2157 3642 
L 2157 4659 
L 1651 4659 
L 1651 3622 
C 1651 2630 1005 1638 192 1126 
L 512 762 
C 1158 1229 1709 1920 1907 2618 
C 2131 1946 2778 1235 3290 890 
L 3590 1261 
z
" transform="scale(0.015625)"/>
      <path id="AppleSDGothicNeo-Regular-cd2" d="M 4883 -397 
L 4883 6 
L 1350 6 
L 1350 538 
L 4672 538 
L 4672 1766 
L 838 1766 
L 838 1370 
L 4186 1370 
L 4186 902 
L 858 902 
L 858 -397 
L 4883 -397 
z
M 4794 3021 
L 4794 3424 
L 3904 3424 
L 4058 4256 
L 3552 4320 
L 3437 3424 
L 2074 3424 
L 1978 4307 
L 1472 4243 
L 1613 3424 
L 723 3424 
L 723 3021 
L 4794 3021 
z
M 5293 2195 
L 5293 2605 
L 243 2605 
L 243 2195 
L 5293 2195 
z
M 4794 4525 
L 4794 4928 
L 717 4928 
L 717 4525 
L 4794 4525 
z
" transform="scale(0.015625)"/>
      <path id="AppleSDGothicNeo-Regular-7c4" d="M 5453 2509 
L 5453 2925 
L 4544 2925 
L 4544 5146 
L 4058 5146 
L 4058 -448 
L 4544 -448 
L 4544 2509 
L 5453 2509 
z
M 3059 941 
L 3059 4672 
L 2566 4672 
L 2566 3251 
L 915 3251 
L 915 4672 
L 429 4672 
L 429 941 
L 3059 941 
z
M 2566 1350 
L 915 1350 
L 915 2848 
L 2566 2848 
L 2566 1350 
z
" transform="scale(0.015625)"/>
      <path id="AppleSDGothicNeo-Regular-5ef" d="M 5389 3270 
L 5389 3674 
L 4538 3674 
L 4538 5146 
L 4051 5146 
L 4051 1850 
L 4538 1850 
L 4538 3270 
L 5389 3270 
z
M 934 1536 
L 934 1133 
L 4058 1133 
L 4058 -448 
L 4544 -448 
L 4544 1536 
L 934 1536 
z
M 922 2605 
L 922 4314 
L 2957 4314 
L 2957 4723 
L 435 4723 
L 435 2202 
L 890 2202 
C 1856 2202 2918 2285 3539 2394 
L 3494 2790 
C 2957 2682 1971 2605 1197 2605 
L 922 2605 
z
" transform="scale(0.015625)"/>
     </defs>
     <use xlink:href="#AppleSDGothicNeo-Regular-6c4"/>
     <use xlink:href="#AppleSDGothicNeo-Regular-7f0" transform="translate(86.5 0)"/>
     <use xlink:href="#AppleSDGothicNeo-Regular-1" transform="translate(173 0)"/>
     <use xlink:href="#AppleSDGothicNeo-Regular-8ca" transform="translate(199.296875 0)"/>
     <use xlink:href="#AppleSDGothicNeo-Regular-cd2" transform="translate(285.796875 0)"/>
     <use xlink:href="#AppleSDGothicNeo-Regular-1" transform="translate(372.296875 0)"/>
     <use xlink:href="#AppleSDGothicNeo-Regular-9" transform="translate(398.59375 0)"/>
     <use xlink:href="#AppleSDGothicNeo-Regular-7c4" transform="translate(430.296875 0)"/>
     <use xlink:href="#AppleSDGothicNeo-Regular-5ef" transform="translate(516.796875 0)"/>
     <use xlink:href="#AppleSDGothicNeo-Regular-a" transform="translate(603.296875 0)"/>
    </g>
   </g>
  </g>
 </g>
 <defs>
  <clipPath id="pe5925e1817">
   <rect x="40.3875" y="24.2" width="479.88" height="221.76"/>
  </clipPath>
 </defs>
</svg>
